{
.appVersion = "3151";
.formatVersion = 3;
DisplayStrings = (
"abcdefghijklmnopqrstuvwxyz 1234567890",
cfgmrsvwz23469,
cfgmrsvwz23469,
cfgmrsvwz23469,
cfgmrsvwz23469,
cfgmrsvwz23469,
fgmrsvwz23469,
fgmrsvwz23469
);
axes = (
{
name = spaghetti;
tag = SPGH;
}
);
date = "2023-02-28 09:35:51 +0000";
familyName = "New Font";
fontMaster = (
{
axesValues = (
100
);
customParameters = (
{
name = "Master Icon Glyph Name";
value = U;
}
);
id = m01;
metricValues = (
{
over = 16;
pos = 800;
},
{
over = 16;
pos = 700;
},
{
over = 16;
pos = 500;
},
{
over = -16;
},
{
over = -16;
pos = -200;
},
{
over = -16;
}
);
name = uncooked;
},
{
axesValues = (
0
);
iconName = Bold_Extended;
id = "5D4D7253-3A04-4EB3-AE94-F4945074D8A1";
metricValues = (
{
pos = 800;
},
{
pos = 700;
},
{
pos = 500;
},
{
},
{
pos = -200;
},
{
}
);
name = cooked;
}
);
glyphs = (
{
glyphname = a;
lastChange = "2023-03-02 03:21:56 +0000";
layers = (
{
layerId = m01;
shapes = (
{
closed = 1;
nodes = (
(273,798,l),
(273,634,o),
(273,469,o),
(273,305,cs),
(273,284,o),
(273,263,o),
(273,242,cs),
(273,223,o),
(273,205,o),
(273,187,cs),
(273,156,o),
(273,126,o),
(273,95,c),
(273,63,o),
(273,32,o),
(273,0,c),
(323,0,l),
(323,31,o),
(323,62,o),
(323,93,c),
(323,126,o),
(323,158,o),
(323,191,cs),
(323,207,o),
(323,224,o),
(323,240,cs),
(323,263,o),
(323,285,o),
(323,308,cs),
(323,472,o),
(323,636,o),
(323,800,c),
(273,800,l)
);
}
);
width = 600;
},
{
layerId = "5D4D7253-3A04-4EB3-AE94-F4945074D8A1";
shapes = (
{
closed = 1;
nodes = (
(426,288,l),
(426,286,o),
(414,486,o),
(299,486,cs),
(187,486,o),
(209,354,o),
(131,249,cs),
(81,182,o),
(86,16,o),
(234,14,cs),
(344,12,o),
(310,163,o),
(370,163,cs),
(416,163,o),
(431,71,o),
(452,0,c),
(502,14,l),
(472,128,o),
(439,223,o),
(370,223,cs),
(276,223,o),
(291,68,o),
(234,68,cs),
(161,68,o),
(122,158,o),
(189,245,cs),
(263,344,o),
(230,424,o),
(299,424,cs),
(358,424,o),
(373,279,o),
(371,283,c),
(426,292,l)
);
}
);
width = 600;
}
);
unicode = 97;
},
{
glyphname = b;
lastChange = "2023-03-02 03:46:53 +0000";
layers = (
{
layerId = m01;
shapes = (
{
closed = 1;
nodes = (
(273,798,l),
(273,776,o),
(273,755,o),
(273,733,cs),
(273,706,o),
(273,678,o),
(273,650,cs),
(273,591,o),
(273,532,o),
(273,473,cs),
(273,399,o),
(273,326,o),
(273,252,cs),
(273,226,o),
(273,201,o),
(273,175,c),
(273,146,o),
(273,116,o),
(273,86,cs),
(273,58,o),
(273,29,o),
(273,0,c),
(323,0,l),
(323,27,o),
(323,55,o),
(323,83,cs),
(323,115,o),
(323,146,o),
(323,178,c),
(323,204,o),
(323,229,o),
(323,255,cs),
(323,328,o),
(323,402,o),
(323,476,cs),
(323,534,o),
(323,592,o),
(323,650,cs),
(323,679,o),
(323,708,o),
(323,736,cs),
(323,758,o),
(323,779,o),
(323,800,c),
(273,800,l)
);
}
);
width = 600;
},
{
layerId = "5D4D7253-3A04-4EB3-AE94-F4945074D8A1";
shapes = (
{
closed = 1;
nodes = (
(199,754,l),
(239,551,o),
(91,636,o),
(157,409,cs),
(180,294,o),
(160,258,o),
(153,183,cs),
(143,86,o),
(203,8,o),
(284,3,cs),
(412,-5,o),
(471,102,o),
(463,194,cs),
(458,252,o),
(424,270,o),
(427,317,cs),
(435,412,o),
(438,474,o),
(360,481,cs),
(290,487,o),
(260,421,o),
(253,411,c),
(297,377,l),
(313,397,o),
(329,423,o),
(355,421,cs),
(388,418,o),
(375,365,o),
(371,311,cs),
(366,259,o),
(406,234,o),
(406,191,cs),
(406,112,o),
(366,52,o),
(283,61,cs),
(240,66,o),
(208,124,o),
(211,180,cs),
(215,258,o),
(240,296,o),
(217,414,cs),
(173,634,o),
(304,533,o),
(256,763,c),
(199,756,l)
);
}
);
width = 600;
}
);
unicode = 98;
},
{
glyphname = c;
lastChange = "2023-03-03 21:56:25 +0000";
layers = (
{
layerId = m01;
shapes = (
{
closed = 1;
nodes = (
(323,4,l),
(323,41,o),
(323,73,o),
(323,109,cs),
(323,139,o),
(323,170,o),
(323,200,cs),
(323,270,o),
(323,341,o),
(323,411,c),
(323,474,o),
(323,536,o),
(323,598,cs),
(323,665,o),
(323,729,o),
(323,796,c),
(273,796,l),
(273,726,o),
(273,663,o),
(273,595,cs),
(273,534,o),
(273,472,o),
(273,411,c),
(273,339,o),
(273,266,o),
(273,194,cs),
(273,165,o),
(273,137,o),
(273,108,cs),
(273,72,o),
(273,40,o),
(273,4,c)
);
}
);
width = 600;
},
{
layerId = "5D4D7253-3A04-4EB3-AE94-F4945074D8A1";
shapes = (
{
closed = 1;
nodes = (
(441,172,l),
(406,110,o),
(376,62,o),
(323,62,cs),
(290,62,o),
(272,98,o),
(268,129,cs),
(254,232,o),
(183,270,o),
(183,326,cs),
(183,433,o),
(265,439,o),
(307,439,cs),
(347,439,o),
(362,392,o),
(376,307,c),
(436,313,l),
(424,445,o),
(382,499,o),
(308,499,cs),
(189,499,o),
(123,433,o),
(123,322,cs),
(123,240,o),
(194,212,o),
(211,112,cs),
(219,64,o),
(239,1,o),
(326,1,cs),
(392,1,o),
(436,44,o),
(492,142,c)
);
}
);
width = 600;
}
);
unicode = 99;
},
{
glyphname = d;
lastChange = "2023-03-02 03:47:11 +0000";
layers = (
{
layerId = m01;
shapes = (
{
closed = 1;
nodes = (
(273,798,l),
(273,776,o),
(273,755,o),
(273,733,cs),
(273,706,o),
(273,678,o),
(273,650,cs),
(273,591,o),
(273,532,o),
(273,473,cs),
(273,399,o),
(273,326,o),
(273,252,cs),
(273,226,o),
(273,201,o),
(273,175,c),
(273,146,o),
(273,116,o),
(273,86,cs),
(273,58,o),
(273,29,o),
(273,0,c),
(323,0,l),
(323,27,o),
(323,55,o),
(323,83,cs),
(323,115,o),
(323,146,o),
(323,178,c),
(323,204,o),
(323,229,o),
(323,255,cs),
(323,328,o),
(323,402,o),
(323,476,cs),
(323,534,o),
(323,592,o),
(323,650,cs),
(323,679,o),
(323,708,o),
(323,736,cs),
(323,758,o),
(323,779,o),
(323,800,c),
(273,800,l)
);
}
);
width = 600;
},
{
layerId = "5D4D7253-3A04-4EB3-AE94-F4945074D8A1";
shapes = (
{
closed = 1;
nodes = (
(342,765,l),
(293,534,o),
(425,635,o),
(381,416,cs),
(357,297,o),
(384,259,o),
(388,181,cs),
(390,125,o),
(357,67,o),
(315,63,cs),
(232,53,o),
(186,108,o),
(191,200,cs),
(193,228,o),
(220,264,o),
(215,317,cs),
(211,370,o),
(210,419,o),
(243,422,cs),
(269,424,o),
(285,399,o),
(301,379,c),
(345,413,l),
(338,423,o),
(307,489,o),
(238,482,cs),
(160,476,o),
(154,416,o),
(161,322,cs),
(165,274,o),
(138,253,o),
(135,212,cs),
(127,111,o),
(186,-4,o),
(314,4,cs),
(395,9,o),
(455,88,o),
(446,184,cs),
(438,259,o),
(418,295,o),
(441,411,cs),
(487,643,o),
(359,553,o),
(399,755,c),
(398,757,l)
);
}
);
width = 600;
}
);
unicode = 100;
},
{
glyphname = e;
lastChange = "2023-03-02 03:48:21 +0000";
layers = (
{
layerId = m01;
shapes = (
{
closed = 1;
nodes = (
(273,798,l),
(273,748,o),
(273,698,o),
(273,647,cs),
(273,622,o),
(273,597,o),
(273,571,cs),
(273,547,o),
(273,523,o),
(273,499,cs),
(273,477,o),
(273,454,o),
(273,431,c),
(273,399,o),
(273,366,o),
(273,334,cs),
(273,223,o),
(273,112,o),
(273,0,c),
(323,0,l),
(323,113,o),
(323,225,o),
(323,338,cs),
(323,371,o),
(323,404,o),
(323,437,c),
(323,461,o),
(323,484,o),
(323,508,cs),
(323,531,o),
(323,554,o),
(323,576,cs),
(323,599,o),
(323,623,o),
(323,646,cs),
(323,698,o),
(323,749,o),
(323,800,c),
(273,800,l)
);
}
);
width = 600;
},
{
layerId = "5D4D7253-3A04-4EB3-AE94-F4945074D8A1";
shapes = (
{
closed = 1;
nodes = (
(254,234,l),
(353,285,o),
(462,315,o),
(460,397,cs),
(459,439,o),
(444,500,o),
(318,500,cs),
(184,500,o),
(123,383,o),
(123,266,cs),
(123,175,o),
(191,182,o),
(223,126,cs),
(257,66,o),
(237,0,o),
(338,0,cs),
(423,0,o),
(474,81,o),
(503,116,c),
(462,153,l),
(432,117,o),
(386,56,o),
(338,56,cs),
(280,56,o),
(300,117,o),
(265,166,cs),
(237,206,o),
(180,214,o),
(180,275,cs),
(180,376,o),
(230,446,o),
(318,446,cs),
(357,446,o),
(403,443,o),
(403,397,cs),
(403,359,o),
(303,323,o),
(229,286,c),
(252,234,l)
);
}
);
width = 600;
}
);
unicode = 101;
},
{
glyphname = f;
lastChange = "2023-03-03 21:59:05 +0000";
layers = (
{
layerId = m01;
shapes = (
{
closed = 1;
nodes = (
(323,1,l),
(323,74,o),
(323,146,o),
(323,220,cs),
(323,306,o),
(323,392,o),
(323,478,c),
(323,499,o),
(323,521,o),
(323,542,c),
(323,557,o),
(323,573,o),
(323,588,c),
(323,611,o),
(323,633,o),
(323,656,c),
(323,704,o),
(323,751,o),
(323,799,c),
(273,799,l),
(273,747,o),
(273,697,o),
(273,647,c),
(273,628,o),
(273,608,o),
(273,589,c),
(273,573,o),
(273,558,o),
(273,542,c),
(273,522,o),
(273,501,o),
(273,481,c),
(273,393,o),
(273,305,o),
(273,217,cs),
(273,144,o),
(273,73,o),
(273,1,c)
);
}
);
width = 600;
},
{
layerId = "5D4D7253-3A04-4EB3-AE94-F4945074D8A1";
shapes = (
{
closed = 1;
nodes = (
(394,1,l),
(434,261,o),
(346,205,o),
(386,348,cs),
(408,425,o),
(383,455,o),
(332,469,cs),
(281,483,o),
(213,459,o),
(213,501,cs),
(213,527,o),
(266,512,o),
(309,539,cs),
(357,569,o),
(330,662,o),
(388,662,cs),
(416,662,o),
(417,645,o),
(430,615,c),
(479,625,l),
(463,698,o),
(431,717,o),
(392,718,cs),
(275,720,o),
(313,599,o),
(268,580,cs),
(220,560,o),
(155,566,o),
(155,501,cs),
(155,403,o),
(260,440,o),
(314,419,cs),
(338,410,o),
(349,395,o),
(333,348,cs),
(286,209,o),
(380,261,o),
(341,1,c)
);
}
);
width = 600;
}
);
unicode = 102;
},
{
glyphname = g;
lastChange = "2023-03-03 21:57:29 +0000";
layers = (
{
layerId = m01;
shapes = (
{
closed = 1;
nodes = (
(323,0,l),
(323,22,o),
(323,44,o),
(323,66,cs),
(323,84,o),
(323,102,o),
(323,120,cs),
(323,157,o),
(323,195,o),
(323,232,c),
(323,255,o),
(323,278,o),
(323,302,cs),
(323,329,o),
(323,356,o),
(323,383,cs),
(323,427,o),
(323,471,o),
(323,516,cs),
(323,570,o),
(323,625,o),
(323,679,cs),
(323,719,o),
(323,760,o),
(323,800,c),
(273,800,l),
(273,758,o),
(273,717,o),
(273,677,cs),
(273,624,o),
(273,571,o),
(273,517,cs),
(273,472,o),
(273,426,o),
(273,381,cs),
(273,353,o),
(273,326,o),
(273,298,cs),
(273,274,o),
(273,249,o),
(273,225,c),
(273,188,o),
(273,152,o),
(273,115,cs),
(273,98,o),
(273,81,o),
(273,64,cs),
(273,42,o),
(273,21,o),
(273,0,c)
);
}
);
width = 600;
},
{
layerId = "5D4D7253-3A04-4EB3-AE94-F4945074D8A1";
shapes = (
{
closed = 1;
nodes = (
(105,-104,l),
(186,-162,o),
(259,-199,o),
(310,-199,cs),
(345,-199,o),
(409,-200,o),
(442,-124,cs),
(472,-56,o),
(406,-7,o),
(431,64,cs),
(472,182,o),
(444,238,o),
(448,343,cs),
(451,418,o),
(435,499,o),
(334,499,cs),
(225,499,o),
(242,420,o),
(212,374,cs),
(180,325,o),
(148,311,o),
(148,255,cs),
(148,132,o),
(255,147,o),
(327,136,c),
(335,194,l),
(265,202,o),
(210,192,o),
(210,243,cs),
(210,298,o),
(215,290,o),
(254,338,c),
(286,378,o),
(276,443,o),
(333,443,cs),
(389,443,o),
(398,371,o),
(395,313,cs),
(389,208,o),
(417,193,o),
(376,75,cs),
(349,-2,o),
(403,-61,o),
(385,-100,cs),
(368,-137,o),
(345,-140,o),
(310,-140,cs),
(269,-140,o),
(222,-110,o),
(139,-55,c)
);
}
);
width = 600;
}
);
unicode = 103;
},
{
glyphname = h;
lastChange = "2023-03-02 04:01:52 +0000";
layers = (
{
layerId = m01;
shapes = (
{
closed = 1;
nodes = (
(275,798,l),
(275,742,o),
(275,685,o),
(275,629,c),
(275,604,o),
(275,580,o),
(275,555,c),
(275,470,o),
(275,386,o),
(275,301,c),
(275,270,o),
(275,240,o),
(275,209,c),
(275,183,o),
(275,156,o),
(275,130,c),
(275,87,o),
(275,43,o),
(275,0,c),
(325,0,l),
(325,43,o),
(325,86,o),
(325,129,c),
(325,158,o),
(325,187,o),
(325,216,c),
(325,247,o),
(325,278,o),
(325,309,c),
(325,391,o),
(325,472,o),
(325,554,c),
(325,580,o),
(325,607,o),
(325,633,c),
(325,689,o),
(325,744,o),
(325,800,c),
(275,800,l)
);
}
);
width = 600;
},
{
layerId = "5D4D7253-3A04-4EB3-AE94-F4945074D8A1";
shapes = (
{
closed = 1;
nodes = (
(141,740,l),
(141,684,o),
(132,627,o),
(132,571,cs),
(132,499,o),
(170,464,o),
(170,401,cs),
(170,316,o),
(134,218,o),
(132,211,cs),
(112,151,o),
(90,-8,o),
(216,0,cs),
(312,6,o),
(294,240,o),
(390,240,cs),
(455,240,o),
(458,109,o),
(489,4,c),
(539,19,l),
(508,156,o),
(499,299,o),
(390,303,cs),
(254,308,o),
(257,59,o),
(206,59,cs),
(156,59,o),
(171,161,o),
(183,201,cs),
(187,214,o),
(224,316,o),
(224,398,cs),
(224,462,o),
(187,519,o),
(187,573,cs),
(187,629,o),
(196,686,o),
(196,742,c),
(141,742,l)
);
}
);
width = 600;
}
);
unicode = 104;
},
{
glyphname = i;
lastChange = "2023-03-02 15:04:15 +0000";
layers = (
{
layerId = m01;
shapes = (
{
closed = 1;
nodes = (
(273,798,l),
(273,757,o),
(273,715,o),
(273,674,cs),
(273,632,o),
(273,590,o),
(273,548,cs),
(273,504,o),
(273,459,o),
(273,415,cs),
(273,357,o),
(273,298,o),
(273,240,cs),
(273,160,o),
(273,80,o),
(273,0,c),
(323,0,l),
(323,80,o),
(323,160,o),
(323,239,cs),
(323,299,o),
(323,359,o),
(323,418,cs),
(323,462,o),
(323,505,o),
(323,549,cs),
(323,592,o),
(323,634,o),
(323,677,cs),
(323,718,o),
(323,759,o),
(323,800,c),
(273,800,l)
);
}
);
width = 600;
},
{
layerId = "5D4D7253-3A04-4EB3-AE94-F4945074D8A1";
shapes = (
{
closed = 1;
nodes = (
(363,641,l),
(335,637,o),
(224,622,o),
(221,558,cs),
(217,470,o),
(307,487,o),
(307,437,cs),
(307,393,o),
(262,371,o),
(262,313,cs),
(262,235,o),
(300,228,o),
(300,173,cs),
(300,105,o),
(277,67,o),
(277,0,c),
(331,0,l),
(331,66,o),
(352,101,o),
(352,178,cs),
(352,238,o),
(319,237,o),
(319,314,cs),
(319,363,o),
(362,372,o),
(362,440,cs),
(362,520,o),
(279,505,o),
(279,547,cs),
(279,591,o),
(356,586,o),
(376,592,c),
(363,643,l)
);
}
);
width = 600;
}
);
unicode = 105;
},
{
glyphname = j;
lastChange = "2023-03-03 21:36:38 +0000";
layers = (
{
layerId = m01;
shapes = (
{
closed = 1;
nodes = (
(273,798,l),
(273,772,o),
(273,747,o),
(273,721,c),
(273,699,o),
(273,677,o),
(273,655,c),
(273,629,o),
(273,604,o),
(273,578,c),
(273,504,o),
(273,430,o),
(273,356,c),
(273,307,o),
(273,257,o),
(273,208,c),
(273,139,o),
(273,69,o),
(273,0,c),
(323,0,l),
(323,71,o),
(323,141,o),
(323,212,c),
(323,261,o),
(323,310,o),
(323,359,c),
(323,432,o),
(323,504,o),
(323,577,c),
(323,603,o),
(323,630,o),
(323,656,c),
(323,679,o),
(323,702,o),
(323,725,c),
(323,750,o),
(323,775,o),
(323,800,c),
(273,800,l)
);
}
);
width = 600;
},
{
layerId = "5D4D7253-3A04-4EB3-AE94-F4945074D8A1";
shapes = (
{
closed = 1;
nodes = (
(221,553,l),
(190,539,o),
(125,532,o),
(124,442,cs),
(122,290,o),
(304,413,o),
(330,343,cs),
(357,269,o),
(296,212,o),
(296,119,cs),
(296,59,o),
(345,13,o),
(345,-36,cs),
(345,-97,o),
(317,-140,o),
(289,-140,cs),
(247,-140,o),
(223,-108,o),
(167,-38,c),
(120,-74,l),
(190,-169,o),
(218,-198,o),
(286,-201,cs),
(333,-203,o),
(401,-165,o),
(401,-47,cs),
(401,41,o),
(358,67,o),
(358,122,cs),
(358,215,o),
(420,294,o),
(382,379,cs),
(342,468,o),
(178,379,o),
(178,444,cs),
(178,486,o),
(208,489,o),
(247,505,c),
(223,554,l)
);
}
);
width = 600;
}
);
unicode = 106;
},
{
glyphname = k;
lastChange = "2023-03-03 19:09:07 +0000";
layers = (
{
layerId = m01;
shapes = (
{
closed = 1;
nodes = (
(273,798,l),
(273,756,o),
(273,715,o),
(273,673,c),
(273,644,o),
(273,616,o),
(273,587,c),
(273,559,o),
(273,532,o),
(273,504,c),
(273,474,o),
(273,445,o),
(273,415,c),
(273,380,o),
(273,345,o),
(273,310,c),
(273,295,o),
(273,280,o),
(273,265,cs),
(273,177,o),
(273,88,o),
(273,0,c),
(323,0,l),
(323,88,o),
(323,177,o),
(323,266,cs),
(323,281,o),
(323,295,o),
(323,310,c),
(323,346,o),
(323,382,o),
(323,418,c),
(323,446,o),
(323,473,o),
(323,501,c),
(323,529,o),
(323,556,o),
(323,584,c),
(323,616,o),
(323,647,o),
(323,679,c),
(323,719,o),
(323,760,o),
(323,800,c),
(273,800,l)
);
}
);
width = 600;
},
{
layerId = "5D4D7253-3A04-4EB3-AE94-F4945074D8A1";
shapes = (
{
closed = 1;
nodes = (
(482,498,l),
(422,413,o),
(430,379,o),
(386,379,cs),
(302,379,o),
(292,767,o),
(150,691,cs),
(29,626,o),
(179,553,o),
(153,430,cs),
(127,304,o),
(191,271,o),
(169,209,cs),
(132,104,o),
(109,0,o),
(217,0,cs),
(331,0,o),
(302,235,o),
(378,235,cs),
(433,235,o),
(457,94,o),
(492,3,c),
(541,24,l),
(504,122,o),
(486,291,o),
(373,291,cs),
(249,291,o),
(278,60,o),
(214,60,cs),
(173,60,o),
(209,127,o),
(225,207,cs),
(238,270,o),
(190,317,o),
(207,412,cs),
(234,566,o),
(127,606,o),
(178,633,cs),
(236,664,o),
(263,312,o),
(386,312,cs),
(453,312,o),
(470,384,o),
(530,472,c),
(482,500,l)
);
}
);
width = 600;
}
);
unicode = 107;
},
{
glyphname = l;
lastChange = "2023-03-03 21:34:04 +0000";
layers = (
{
layerId = m01;
shapes = (
{
closed = 1;
nodes = (
(273,798,l),
(273,752,o),
(273,706,o),
(273,660,c),
(273,624,o),
(273,587,o),
(273,551,c),
(273,511,o),
(273,350,o),
(273,309,c),
(273,253,o),
(273,197,o),
(273,141,c),
(273,94,o),
(273,47,o),
(273,0,c),
(323,0,l),
(323,48,o),
(323,96,o),
(323,144,c),
(323,201,o),
(323,259,o),
(323,316,c),
(323,356,o),
(323,509,o),
(323,546,c),
(323,588,o),
(323,629,o),
(323,671,c),
(323,714,o),
(323,757,o),
(323,800,c),
(273,800,l)
);
}
);
width = 600;
},
{
layerId = "5D4D7253-3A04-4EB3-AE94-F4945074D8A1";
shapes = (
{
closed = 1;
nodes = (
(250,774,l),
(224,726,o),
(183,691,o),
(183,623,cs),
(183,556,o),
(279,537,o),
(252,465,cs),
(220,380,o),
(269,299,o),
(245,234,cs),
(226,182,o),
(202,151,o),
(202,91,cs),
(202,-24,o),
(318,-1,o),
(438,20,c),
(438,69,l),
(318,49,o),
(256,39,o),
(256,91,cs),
(256,131,o),
(270,144,o),
(296,227,cs),
(317,293,o),
(269,366,o),
(303,472,cs),
(329,553,o),
(239,589,o),
(239,628,cs),
(239,680,o),
(266,692,o),
(298,749,c),
(250,776,l)
);
}
);
width = 600;
}
);
unicode = 108;
},
{
glyphname = m;
lastChange = "2023-03-03 21:58:07 +0000";
layers = (
{
layerId = m01;
shapes = (
{
closed = 1;
nodes = (
(323,0,l),
(323,26,o),
(323,53,o),
(323,79,cs),
(323,99,o),
(323,119,o),
(323,139,c),
(323,161,o),
(323,183,o),
(323,205,cs),
(323,224,o),
(323,243,o),
(323,262,c),
(323,313,o),
(323,364,o),
(323,415,c),
(323,471,o),
(323,526,o),
(323,582,c),
(323,655,o),
(323,727,o),
(323,800,c),
(273,800,l),
(273,722,o),
(273,645,o),
(273,569,c),
(273,515,o),
(273,460,o),
(273,406,c),
(273,355,o),
(273,305,o),
(273,254,c),
(273,235,o),
(273,215,o),
(273,196,cs),
(273,174,o),
(273,153,o),
(273,131,c),
(273,113,o),
(273,95,o),
(273,78,cs),
(273,52,o),
(273,26,o),
(273,0,c)
);
}
);
width = 600;
},
{
layerId = "5D4D7253-3A04-4EB3-AE94-F4945074D8A1";
shapes = (
{
closed = 1;
nodes = (
(70,1,l),
(77,140,o),
(177,164,o),
(125,314,cs),
(98,392,o),
(77,566,o),
(140,571,cs),
(186,573,o),
(171,353,o),
(274,353,cs),
(367,353,o),
(357,447,o),
(415,447,cs),
(454,447,o),
(444,397,o),
(448,297,cs),
(452,194,o),
(518,216,o),
(519,158,cs),
(520,116,o),
(465,110,o),
(490,3,c),
(541,11,l),
(520,105,o),
(579,106,o),
(576,157,cs),
(572,237,o),
(500,231,o),
(498,308,cs),
(495,418,o),
(510,503,o),
(415,503,cs),
(324,503,o),
(330,414,o),
(283,414,cs),
(202,414,o),
(266,631,o),
(132,631,cs),
(5,631,o),
(47,377,o),
(75,298,cs),
(117,181,o),
(17,139,o),
(10,1,c)
);
}
);
width = 676;
}
);
unicode = 109;
},
{
glyphname = n;
lastChange = "2023-03-03 19:13:44 +0000";
layers = (
{
layerId = m01;
shapes = (
{
closed = 1;
nodes = (
(273,798,l),
(273,753,o),
(273,707,o),
(273,662,c),
(273,629,o),
(273,596,o),
(273,563,c),
(273,498,o),
(273,434,o),
(273,369,c),
(273,315,o),
(273,262,o),
(273,208,c),
(273,139,o),
(273,69,o),
(273,0,c),
(323,0,l),
(323,72,o),
(323,143,o),
(323,215,c),
(323,267,o),
(323,320,o),
(323,372,c),
(323,434,o),
(323,495,o),
(323,557,c),
(323,591,o),
(323,624,o),
(323,658,c),
(323,705,o),
(323,753,o),
(323,800,c),
(273,800,l)
);
}
);
width = 600;
},
{
layerId = "5D4D7253-3A04-4EB3-AE94-F4945074D8A1";
shapes = (
{
closed = 1;
nodes = (
(541,0,l),
(541,160,o),
(438,91,o),
(438,166,cs),
(438,194,o),
(480,209,o),
(498,307,cs),
(518,417,o),
(495,509,o),
(299,503,cs),
(164,500,o),
(108,421,o),
(121,244,cs),
(132,89,o),
(59,140,o),
(52,0,c),
(106,0,l),
(113,141,o),
(183,47,o),
(175,255,cs),
(169,405,o),
(210,455,o),
(299,455,cs),
(440,455,o),
(463,423,o),
(448,322,cs),
(435,235,o),
(384,216,o),
(385,155,cs),
(386,50,o),
(486,125,o),
(490,0,c),
(541,2,l)
);
}
);
width = 600;
}
);
unicode = 110;
},
{
glyphname = o;
lastChange = "2023-03-03 21:28:53 +0000";
layers = (
{
layerId = m01;
shapes = (
{
closed = 1;
nodes = (
(273,798,l),
(273,730,o),
(273,663,o),
(273,595,cs),
(273,534,o),
(273,472,o),
(273,411,c),
(273,339,o),
(273,266,o),
(273,194,cs),
(273,165,o),
(273,137,o),
(273,108,cs),
(273,72,o),
(273,36,o),
(273,0,c),
(323,0,l),
(323,37,o),
(323,73,o),
(323,109,cs),
(323,139,o),
(323,170,o),
(323,200,cs),
(323,270,o),
(323,341,o),
(323,411,c),
(323,474,o),
(323,536,o),
(323,598,cs),
(323,665,o),
(323,733,o),
(323,800,c),
(273,800,l)
);
}
);
width = 600;
},
{
layerId = "5D4D7253-3A04-4EB3-AE94-F4945074D8A1";
shapes = (
{
closed = 1;
nodes = (
(293,448,l),
(379,449,o),
(430,384,o),
(447,273,cs),
(458,204,o),
(421,73,o),
(350,59,cs),
(284,46,o),
(286,74,o),
(240,113,cs),
(169,174,o),
(239,214,o),
(232,288,cs),
(227,341,o),
(214,348,o),
(240,392,c),
(194,424,l),
(152,362,o),
(172,350,o),
(173,281,cs),
(174,225,o),
(100,155,o),
(202,74,cs),
(241,43,o),
(249,-15,o),
(362,9,cs),
(450,28,o),
(517,139,o),
(494,296,cs),
(479,400,o),
(423,513,o),
(290,501,c),
(290,500,l)
);
}
);
width = 600;
}
);
unicode = 111;
},
{
glyphname = p;
lastChange = "2023-03-03 21:35:30 +0000";
layers = (
{
layerId = m01;
shapes = (
{
closed = 1;
nodes = (
(273,798,l),
(273,770,o),
(273,743,o),
(273,715,c),
(273,682,o),
(273,648,o),
(273,615,c),
(273,563,o),
(273,511,o),
(273,459,c),
(273,395,o),
(273,331,o),
(273,267,c),
(273,178,o),
(273,89,o),
(273,0,c),
(323,0,l),
(323,89,o),
(323,178,o),
(323,267,c),
(323,331,o),
(323,396,o),
(323,460,c),
(323,512,o),
(323,565,o),
(323,617,c),
(323,651,o),
(323,685,o),
(323,719,c),
(323,746,o),
(323,773,o),
(323,800,c),
(273,800,l)
);
}
);
width = 600;
},
{
layerId = "5D4D7253-3A04-4EB3-AE94-F4945074D8A1";
shapes = (
{
closed = 1;
nodes = (
(316,136,l),
(385,177,o),
(464,260,o),
(464,356,cs),
(464,454,o),
(408,506,o),
(328,506,cs),
(88,506,o),
(162,332,o),
(141,237,cs),
(118,131,o),
(230,123,o),
(201,0,cs),
(187,-60,o),
(201,-129,o),
(201,-194,c),
(251,-194,l),
(251,-130,o),
(239,-62,o),
(251,-1,cs),
(281,146,o),
(179,146,o),
(194,243,cs),
(213,368,o),
(155,453,o),
(332,453,cs),
(366,453,o),
(411,437,o),
(411,349,cs),
(411,292,o),
(356,226,o),
(287,183,c),
(316,138,l)
);
}
);
width = 600;
}
);
unicode = 112;
},
{
glyphname = q;
lastChange = "2023-03-03 21:35:21 +0000";
layers = (
{
layerId = m01;
shapes = (
{
closed = 1;
nodes = (
(273,798,l),
(273,770,o),
(273,743,o),
(273,715,c),
(273,682,o),
(273,648,o),
(273,615,c),
(273,563,o),
(273,511,o),
(273,459,c),
(273,395,o),
(273,331,o),
(273,267,c),
(273,221,o),
(273,175,o),
(273,129,cs),
(273,86,o),
(273,43,o),
(273,0,c),
(323,0,l),
(323,43,o),
(323,87,o),
(323,130,cs),
(323,176,o),
(323,221,o),
(323,267,c),
(323,331,o),
(323,396,o),
(323,460,c),
(323,512,o),
(323,565,o),
(323,617,c),
(323,651,o),
(323,685,o),
(323,719,c),
(323,746,o),
(323,773,o),
(323,800,c),
(273,800,l)
);
}
);
width = 600;
},
{
layerId = "5D4D7253-3A04-4EB3-AE94-F4945074D8A1";
shapes = (
{
closed = 1;
nodes = (
(318,173,l),
(221,204,o),
(178,266,o),
(178,339,cs),
(178,428,o),
(223,444,o),
(257,444,cs),
(434,444,o),
(376,359,o),
(395,233,cs),
(410,136,o),
(298,129,o),
(331,-13,cs),
(340,-51,o),
(314,-202,o),
(411,-202,cs),
(454,-202,o),
(488,-166,o),
(524,-157,c),
(508,-112,l),
(472,-119,o),
(450,-153,o),
(411,-153,cs),
(372,-153,o),
(387,-48,o),
(381,-11,cs),
(361,112,o),
(465,124,o),
(448,227,cs),
(432,324,o),
(501,498,o),
(261,498,cs),
(181,498,o),
(125,446,o),
(125,347,cs),
(125,250,o),
(181,155,o),
(300,125,c),
(300,127,l)
);
}
);
width = 600;
}
);
unicode = 113;
},
{
glyphname = r;
lastChange = "2023-03-03 21:59:11 +0000";
layers = (
{
layerId = m01;
shapes = (
{
closed = 1;
nodes = (
(323,0,l),
(323,55,o),
(323,110,o),
(323,165,cs),
(323,181,o),
(323,198,o),
(323,214,c),
(323,253,o),
(323,293,o),
(323,332,cs),
(323,366,o),
(323,399,o),
(323,433,c),
(323,497,o),
(323,561,o),
(323,625,c),
(323,683,o),
(323,742,o),
(323,800,c),
(273,800,l),
(273,737,o),
(273,677,o),
(273,616,c),
(273,554,o),
(273,492,o),
(273,430,c),
(273,398,o),
(273,366,o),
(273,335,cs),
(273,294,o),
(273,253,o),
(273,212,c),
(273,195,o),
(273,178,o),
(273,161,cs),
(273,108,o),
(273,54,o),
(273,0,c)
);
}
);
width = 600;
},
{
layerId = "5D4D7253-3A04-4EB3-AE94-F4945074D8A1";
shapes = (
{
closed = 1;
nodes = (
(238,1,l),
(221,106,o),
(253,95,o),
(252,170,cs),
(251,227,o),
(198,253,o),
(193,310,cs),
(184,412,o),
(168,440,o),
(204,440,cs),
(239,440,o),
(239,385,o),
(296,385,cs),
(358,386,o),
(363,442,o),
(406,442,cs),
(436,442,o),
(436,432,o),
(489,392,c),
(527,436,l),
(478,471,o),
(456,499,o),
(400,498,cs),
(346,496,o),
(331,441,o),
(297,441,cs),
(267,441,o),
(259,500,o),
(193,498,cs),
(101,495,o),
(127,414,o),
(135,304,cs),
(140,234,o),
(193,212,o),
(195,167,cs),
(199,98,o),
(164,107,o),
(180,1,c)
);
}
);
width = 600;
}
);
unicode = 114;
},
{
glyphname = s;
lastChange = "2023-03-03 21:59:40 +0000";
layers = (
{
layerId = m01;
shapes = (
{
closed = 1;
nodes = (
(323,0,l),
(323,53,o),
(323,105,o),
(323,158,c),
(323,196,o),
(323,235,o),
(323,273,c),
(323,319,o),
(323,364,o),
(323,410,c),
(323,455,o),
(323,501,o),
(323,546,c),
(323,568,o),
(323,591,o),
(323,613,c),
(323,645,o),
(323,678,o),
(323,710,c),
(323,740,o),
(323,770,o),
(323,800,c),
(273,800,l),
(273,768,o),
(273,737,o),
(273,707,c),
(273,677,o),
(273,646,o),
(273,616,c),
(273,593,o),
(273,571,o),
(273,548,c),
(273,500,o),
(273,452,o),
(273,404,c),
(273,360,o),
(273,316,o),
(273,272,c),
(273,234,o),
(273,197,o),
(273,159,c),
(273,106,o),
(273,53,o),
(273,0,c)
);
}
);
width = 600;
},
{
layerId = "5D4D7253-3A04-4EB3-AE94-F4945074D8A1";
shapes = (
{
closed = 1;
nodes = (
(83,161,l),
(94,135,o),
(123,85,o),
(178,85,cs),
(237,85,o),
(233,1,o),
(323,1,cs),
(443,1,o),
(471,138,o),
(471,179,cs),
(471,257,o),
(391,283,o),
(345,283,cs),
(282,283,o),
(232,321,o),
(232,360,cs),
(232,419,o),
(283,444,o),
(328,444,cs),
(367,444,o),
(380,442,o),
(453,385,c),
(487,429,l),
(387,507,o),
(349,499,o),
(315,499,cs),
(248,499,o),
(173,446,o),
(173,354,cs),
(173,299,o),
(241,228,o),
(347,228,cs),
(389,228,o),
(416,207,o),
(416,177,cs),
(416,158,o),
(400,59,o),
(331,57,cs),
(279,55,o),
(266,140,o),
(199,140,cs),
(148,140,o),
(142,168,o),
(129,189,c)
);
}
);
width = 566;
}
);
unicode = 115;
},
{
glyphname = t;
lastChange = "2023-03-03 19:11:25 +0000";
layers = (
{
layerId = m01;
shapes = (
{
closed = 1;
nodes = (
(273,798,l),
(273,748,o),
(273,608,o),
(273,589,c),
(273,573,o),
(273,558,o),
(273,542,c),
(273,522,o),
(273,501,o),
(273,481,c),
(273,393,o),
(273,305,o),
(273,217,cs),
(273,144,o),
(273,72,o),
(273,0,c),
(323,0,l),
(323,73,o),
(323,146,o),
(323,220,cs),
(323,306,o),
(323,392,o),
(323,478,c),
(323,499,o),
(323,521,o),
(323,542,c),
(323,557,o),
(323,573,o),
(323,588,c),
(323,611,o),
(323,752,o),
(323,800,c),
(273,800,l)
);
}
);
width = 600;
},
{
layerId = "5D4D7253-3A04-4EB3-AE94-F4945074D8A1";
shapes = (
{
closed = 1;
nodes = (
(309,703,l),
(307,643,o),
(313,599,o),
(268,580,cs),
(220,560,o),
(155,565,o),
(155,500,cs),
(155,402,o),
(260,440,o),
(314,419,cs),
(338,410,o),
(349,395,o),
(333,348,cs),
(286,209,o),
(380,260,o),
(341,0,c),
(390,0,l),
(430,260,o),
(346,205,o),
(386,348,cs),
(408,425,o),
(383,455,o),
(332,469,cs),
(281,483,o),
(213,458,o),
(213,500,cs),
(213,526,o),
(266,512,o),
(309,539,cs),
(357,569,o),
(353,609,o),
(357,700,c),
(309,705,l)
);
}
);
width = 600;
}
);
unicode = 116;
},
{
glyphname = u;
lastChange = "2023-03-03 21:30:23 +0000";
layers = (
{
layerId = m01;
shapes = (
{
closed = 1;
nodes = (
(273,798,l),
(273,753,o),
(273,707,o),
(273,662,c),
(273,629,o),
(273,596,o),
(273,563,c),
(273,498,o),
(273,434,o),
(273,369,c),
(273,315,o),
(273,262,o),
(273,208,c),
(273,139,o),
(273,69,o),
(273,0,c),
(323,0,l),
(323,72,o),
(323,143,o),
(323,215,c),
(323,267,o),
(323,320,o),
(323,372,c),
(323,434,o),
(323,495,o),
(323,557,c),
(323,591,o),
(323,624,o),
(323,658,c),
(323,705,o),
(323,753,o),
(323,800,c),
(273,800,l)
);
}
);
width = 600;
},
{
layerId = "5D4D7253-3A04-4EB3-AE94-F4945074D8A1";
shapes = (
{
closed = 1;
nodes = (
(51,502,l),
(51,342,o),
(154,411,o),
(154,336,cs),
(154,308,o),
(112,293,o),
(94,195,cs),
(74,85,o),
(97,-7,o),
(293,-1,cs),
(428,2,o),
(484,81,o),
(471,258,cs),
(460,413,o),
(531,346,o),
(540,502,c),
(486,502,l),
(479,361,o),
(409,455,o),
(417,247,cs),
(423,97,o),
(382,50,o),
(293,50,cs),
(152,50,o),
(129,79,o),
(144,180,cs),
(157,267,o),
(208,286,o),
(207,347,cs),
(206,452,o),
(106,377,o),
(102,502,c),
(51,500,l)
);
}
);
width = 640;
}
);
unicode = 117;
},
{
glyphname = v;
lastChange = "2023-03-03 22:00:04 +0000";
layers = (
{
layerId = m01;
shapes = (
{
closed = 1;
nodes = (
(323,0,l),
(323,72,o),
(323,143,o),
(323,215,c),
(323,267,o),
(323,320,o),
(323,372,c),
(323,434,o),
(323,495,o),
(323,557,c),
(323,591,o),
(323,624,o),
(323,658,c),
(323,705,o),
(323,753,o),
(323,800,c),
(273,800,l),
(273,753,o),
(273,707,o),
(273,662,c),
(273,629,o),
(273,596,o),
(273,563,c),
(273,498,o),
(273,434,o),
(273,369,c),
(273,315,o),
(273,262,o),
(273,208,c),
(273,139,o),
(273,69,o),
(273,0,c)
);
}
);
width = 600;
},
{
layerId = "5D4D7253-3A04-4EB3-AE94-F4945074D8A1";
shapes = (
{
closed = 1;
nodes = (
(60,461,l),
(132,389,o),
(132,389,o),
(132,314,cs),
(132,216,o),
(223,210,o),
(209,135,cs),
(193,53,o),
(249,-3,o),
(337,-1,cs),
(423,1,o),
(475,82,o),
(445,258,cs),
(425,375,o),
(444,351,o),
(494,412,c),
(456,447,l),
(410,398,o),
(367,387,o),
(395,258,cs),
(427,109,o),
(386,53,o),
(329,50,cs),
(320,50,o),
(251,47,o),
(263,140,cs),
(275,234,o),
(183,254,o),
(185,325,cs),
(188,430,o),
(177,419,o),
(102,502,c)
);
}
);
width = 624;
}
);
unicode = 118;
},
{
glyphname = w;
lastChange = "2023-03-03 22:00:26 +0000";
layers = (
{
layerId = m01;
shapes = (
{
closed = 1;
nodes = (
(323,0,l),
(323,26,o),
(323,53,o),
(323,79,cs),
(323,109,o),
(323,138,o),
(323,168,cs),
(323,183,o),
(323,199,o),
(323,215,c),
(323,243,o),
(323,272,o),
(323,301,cs),
(323,325,o),
(323,348,o),
(323,372,c),
(323,405,o),
(323,438,o),
(323,470,cs),
(323,499,o),
(323,528,o),
(323,557,c),
(323,591,o),
(323,624,o),
(323,658,c),
(323,705,o),
(323,753,o),
(323,800,c),
(273,800,l),
(273,753,o),
(273,707,o),
(273,662,c),
(273,629,o),
(273,596,o),
(273,563,c),
(273,532,o),
(273,502,o),
(273,471,cs),
(273,437,o),
(273,403,o),
(273,369,c),
(273,346,o),
(273,323,o),
(273,300,cs),
(273,269,o),
(273,239,o),
(273,208,c),
(273,192,o),
(273,177,o),
(273,161,cs),
(273,133,o),
(273,105,o),
(273,78,cs),
(273,52,o),
(273,26,o),
(273,0,c)
);
}
);
width = 600;
},
{
layerId = "5D4D7253-3A04-4EB3-AE94-F4945074D8A1";
shapes = (
{
closed = 1;
nodes = (
(16,462,l),
(88,390,o),
(91,390,o),
(91,315,cs),
(91,217,o),
(142,211,o),
(128,136,cs),
(112,54,o),
(159,-1,o),
(247,1,cs),
(333,3,o),
(355,83,o),
(325,259,cs),
(310,349,o),
(307,382,o),
(345,382,cs),
(368,382,o),
(391,338,o),
(391,239,cs),
(391,184,o),
(333,2,o),
(454,1,cs),
(603,0,o),
(479,149,o),
(547,251,cs),
(596,323,o),
(543,367,o),
(585,440,c),
(539,462,l),
(487,367,o),
(550,347,o),
(494,248,cs),
(445,160,o),
(517,46,o),
(459,46,cs),
(394,46,o),
(441,185,o),
(440,248,cs),
(437,456,o),
(348,436,o),
(333,436,cs),
(268,436,o),
(253,366,o),
(275,259,cs),
(301,134,o),
(296,57,o),
(239,54,cs),
(230,54,o),
(167,48,o),
(179,141,cs),
(191,235,o),
(139,255,o),
(141,326,cs),
(144,431,o),
(133,420,o),
(58,503,c)
);
}
);
width = 735;
}
);
unicode = 119;
},
{
glyphname = x;
lastChange = "2023-03-03 21:31:27 +0000";
layers = (
{
layerId = m01;
shapes = (
{
closed = 1;
nodes = (
(273,798,l),
(273,756,o),
(273,715,o),
(273,673,c),
(273,644,o),
(273,616,o),
(273,587,c),
(273,559,o),
(273,532,o),
(273,504,c),
(273,474,o),
(273,445,o),
(273,415,c),
(273,380,o),
(273,345,o),
(273,310,c),
(273,295,o),
(273,88,o),
(273,0,c),
(323,0,l),
(323,88,o),
(323,295,o),
(323,310,c),
(323,346,o),
(323,382,o),
(323,418,c),
(323,446,o),
(323,473,o),
(323,501,c),
(323,529,o),
(323,556,o),
(323,584,c),
(323,616,o),
(323,647,o),
(323,679,c),
(323,719,o),
(323,760,o),
(323,800,c),
(273,800,l)
);
}
);
width = 600;
},
{
layerId = "5D4D7253-3A04-4EB3-AE94-F4945074D8A1";
shapes = (
{
closed = 1;
nodes = (
(426,498,l),
(366,413,o),
(360,370,o),
(310,370,cs),
(241,370,o),
(216,554,o),
(116,490,cs),
(19,428,o),
(143,357,o),
(133,282,cs),
(120,182,o),
(35,0,o),
(161,0,cs),
(285,0,o),
(245,239,o),
(335,239,cs),
(399,239,o),
(410,142,o),
(454,11,c),
(507,28,l),
(445,203,o),
(443,291,o),
(333,291,cs),
(193,291,o),
(230,53,o),
(166,53,cs),
(108,53,o),
(182,237,o),
(187,295,cs),
(193,364,o),
(103,408,o),
(150,443,cs),
(184,468,o),
(207,315,o),
(312,315,cs),
(379,315,o),
(412,379,o),
(472,467,c),
(426,500,l)
);
}
);
width = 607;
}
);
unicode = 120;
},
{
glyphname = y;
lastChange = "2023-03-03 21:35:48 +0000";
layers = (
{
layerId = m01;
shapes = (
{
closed = 1;
nodes = (
(273,798,l),
(273,758,o),
(273,717,o),
(273,677,cs),
(273,624,o),
(273,571,o),
(273,517,cs),
(273,472,o),
(273,426,o),
(273,381,cs),
(273,353,o),
(273,326,o),
(273,298,cs),
(273,274,o),
(273,249,o),
(273,225,c),
(273,188,o),
(273,152,o),
(273,115,cs),
(273,98,o),
(273,81,o),
(273,64,cs),
(273,42,o),
(273,21,o),
(273,0,c),
(323,0,l),
(323,22,o),
(323,44,o),
(323,66,cs),
(323,84,o),
(323,102,o),
(323,120,cs),
(323,157,o),
(323,195,o),
(323,232,c),
(323,255,o),
(323,278,o),
(323,302,cs),
(323,329,o),
(323,356,o),
(323,383,cs),
(323,427,o),
(323,471,o),
(323,516,cs),
(323,570,o),
(323,625,o),
(323,679,cs),
(323,719,o),
(323,760,o),
(323,800,c),
(273,800,l)
);
}
);
width = 600;
},
{
layerId = "5D4D7253-3A04-4EB3-AE94-F4945074D8A1";
shapes = (
{
closed = 1;
nodes = (
(78,418,l),
(103,337,o),
(80,178,o),
(243,185,cs),
(332,189,o),
(350,260,o),
(340,346,cs),
(334,395,o),
(339,445,o),
(371,446,cs),
(427,448,o),
(418,380,o),
(402,324,cs),
(371,212,o),
(446,191,o),
(392,78,cs),
(358,6,o),
(419,-61,o),
(401,-100,cs),
(384,-137,o),
(361,-142,o),
(326,-142,cs),
(285,-142,o),
(238,-112,o),
(155,-57,c),
(121,-101,l),
(202,-159,o),
(275,-197,o),
(326,-197,cs),
(361,-197,o),
(421,-195,o),
(454,-119,cs),
(484,-51,o),
(410,0,o),
(443,69,cs),
(499,187,o),
(423,222,o),
(454,326,cs),
(480,416,o),
(470,503,o),
(371,503,cs),
(283,503,o),
(280,422,o),
(285,346,cs),
(288,309,o),
(295,242,o),
(238,240,cs),
(146,236,o),
(159,333,o),
(131,432,c),
(78,420,l)
);
}
);
width = 600;
}
);
unicode = 121;
},
{
glyphname = z;
lastChange = "2023-03-03 22:00:57 +0000";
layers = (
{
layerId = m01;
shapes = (
{
closed = 1;
nodes = (
(323,0,l),
(323,53,o),
(323,105,o),
(323,158,c),
(323,196,o),
(323,235,o),
(323,273,c),
(323,319,o),
(323,364,o),
(323,410,c),
(323,455,o),
(323,501,o),
(323,546,c),
(323,568,o),
(323,591,o),
(323,613,c),
(323,645,o),
(323,678,o),
(323,710,c),
(323,740,o),
(323,770,o),
(323,800,c),
(273,800,l),
(273,768,o),
(273,737,o),
(273,707,c),
(273,677,o),
(273,646,o),
(273,616,c),
(273,593,o),
(273,571,o),
(273,548,c),
(273,500,o),
(273,452,o),
(273,404,c),
(273,360,o),
(273,316,o),
(273,272,c),
(273,234,o),
(273,197,o),
(273,159,c),
(273,106,o),
(273,53,o),
(273,0,c)
);
}
);
width = 600;
},
{
layerId = "5D4D7253-3A04-4EB3-AE94-F4945074D8A1";
shapes = (
{
closed = 1;
nodes = (
(512,80,l),
(469,91,o),
(429,110,o),
(378,110,cs),
(303,110,o),
(297,53,o),
(253,53,cs),
(187,53,o),
(174,103,o),
(174,122,cs),
(174,187,o),
(227,231,o),
(278,231,cs),
(384,231,o),
(514,292,o),
(514,406,cs),
(514,547,o),
(381,483,o),
(355,478,cs),
(227,453,o),
(275,518,o),
(152,476,c),
(165,419,l),
(263,456,o),
(283,412,o),
(357,422,cs),
(391,427,o),
(464,468,o),
(460,395,cs),
(457,334,o),
(343,283,o),
(280,283,cs),
(217,283,o),
(119,237,o),
(119,124,cs),
(119,83,o),
(147,1,o),
(261,1,cs),
(335,1,o),
(328,58,o),
(387,58,cs),
(429,58,o),
(435,48,o),
(499,29,c)
);
}
);
width = 600;
}
);
unicode = 122;
},
{
glyphname = zero;
lastChange = "2023-03-03 21:29:50 +0000";
layers = (
{
layerId = m01;
shapes = (
{
closed = 1;
nodes = (
(273,798,l),
(273,772,o),
(273,677,o),
(273,655,c),
(273,629,o),
(273,604,o),
(273,578,c),
(273,543,o),
(273,508,o),
(273,472,cs),
(273,434,o),
(273,395,o),
(273,356,c),
(273,307,o),
(273,257,o),
(273,208,c),
(273,139,o),
(273,69,o),
(273,0,c),
(323,0,l),
(323,71,o),
(323,141,o),
(323,212,c),
(323,261,o),
(323,310,o),
(323,359,c),
(323,396,o),
(323,432,o),
(323,469,cs),
(323,505,o),
(323,541,o),
(323,577,c),
(323,603,o),
(323,630,o),
(323,656,c),
(323,679,o),
(323,775,o),
(323,800,c),
(273,800,l)
);
}
);
width = 600;
},
{
layerId = "5D4D7253-3A04-4EB3-AE94-F4945074D8A1";
shapes = (
{
closed = 1;
nodes = (
(290,635,l),
(344,645,o),
(362,633,o),
(385,591,cs),
(413,539,o),
(387,511,o),
(387,433,cs),
(387,325,o),
(440,341,o),
(441,218,cs),
(442,150,o),
(395,58,o),
(317,58,c),
(199,58,o),
(163,258,o),
(153,395,cs),
(145,503,o),
(181,534,o),
(217,579,c),
(175,618,l),
(125,559,o),
(90,505,o),
(97,405,cs),
(110,223,o),
(162,0,o),
(311,0,cs),
(433,0,o),
(494,117,o),
(494,220,cs),
(494,358,o),
(440,341,o),
(440,433,cs),
(440,530,o),
(469,541,o),
(427,625,cs),
(401,678,o),
(357,709,o),
(286,689,c),
(292,636,l)
);
}
);
width = 600;
}
);
unicode = 48;
},
{
glyphname = one;
lastChange = "2023-03-03 21:31:57 +0000";
layers = (
{
layerId = m01;
shapes = (
{
closed = 1;
nodes = (
(273,798,l),
(273,748,o),
(273,558,o),
(273,542,c),
(273,522,o),
(273,501,o),
(273,481,c),
(273,393,o),
(273,305,o),
(273,217,cs),
(273,144,o),
(273,72,o),
(273,0,c),
(323,0,l),
(323,73,o),
(323,146,o),
(323,220,cs),
(323,306,o),
(323,392,o),
(323,478,c),
(323,499,o),
(323,521,o),
(323,542,c),
(323,557,o),
(323,752,o),
(323,800,c),
(273,800,l)
);
}
);
width = 600;
},
{
layerId = "5D4D7253-3A04-4EB3-AE94-F4945074D8A1";
shapes = (
{
closed = 1;
nodes = (
(192,505,l),
(263,599,o),
(291,653,o),
(322,632,cs),
(360,607,o),
(281,524,o),
(303,444,cs),
(320,382,o),
(319,371,o),
(294,297,cs),
(251,169,o),
(355,230,o),
(316,0,c),
(368,0,l),
(408,260,o),
(316,180,o),
(346,288,cs),
(368,368,o),
(383,371,o),
(357,457,cs),
(337,524,o),
(449,641,o),
(343,691,cs),
(269,726,o),
(230,656,o),
(149,541,c),
(192,507,l)
);
}
);
width = 489;
}
);
unicode = 49;
},
{
glyphname = two;
lastChange = "2023-03-03 22:01:28 +0000";
layers = (
{
layerId = m01;
shapes = (
{
closed = 1;
nodes = (
(323,0,l),
(323,53,o),
(323,105,o),
(323,158,c),
(323,196,o),
(323,235,o),
(323,273,c),
(323,319,o),
(323,364,o),
(323,410,c),
(323,455,o),
(323,501,o),
(323,546,c),
(323,568,o),
(323,591,o),
(323,613,c),
(323,645,o),
(323,678,o),
(323,710,c),
(323,740,o),
(323,770,o),
(323,800,c),
(273,800,l),
(273,768,o),
(273,737,o),
(273,707,c),
(273,677,o),
(273,646,o),
(273,616,c),
(273,593,o),
(273,571,o),
(273,548,c),
(273,500,o),
(273,452,o),
(273,404,c),
(273,360,o),
(273,316,o),
(273,272,c),
(273,234,o),
(273,197,o),
(273,159,c),
(273,106,o),
(273,53,o),
(273,0,c)
);
}
);
width = 600;
},
{
layerId = "5D4D7253-3A04-4EB3-AE94-F4945074D8A1";
shapes = (
{
closed = 1;
nodes = (
(529,83,l),
(486,107,o),
(437,131,o),
(386,131,cs),
(311,131,o),
(296,61,o),
(252,61,cs),
(186,61,o),
(174,139,o),
(174,166,cs),
(174,224,o),
(277,219,o),
(328,219,cs),
(448,219,o),
(543,331,o),
(541,567,cs),
(539,744,o),
(360,694,o),
(335,683,cs),
(252,648,o),
(298,603,o),
(186,527,c),
(228,474,l),
(316,524,o),
(306,595,o),
(357,619,cs),
(391,635,o),
(486,656,o),
(484,552,cs),
(480,366,o),
(407,277,o),
(326,277,cs),
(263,277,o),
(119,286,o),
(119,177,cs),
(119,119,o),
(138,1,o),
(252,1,cs),
(326,1,o),
(328,65,o),
(387,65,cs),
(429,65,o),
(440,61,o),
(504,25,c)
);
}
);
width = 611;
}
);
unicode = 50;
},
{
glyphname = three;
lastChange = "2023-03-03 22:01:58 +0000";
layers = (
{
layerId = m01;
shapes = (
{
closed = 1;
nodes = (
(323,0,l),
(323,71,o),
(323,141,o),
(323,212,c),
(323,261,o),
(323,310,o),
(323,359,c),
(323,432,o),
(323,504,o),
(323,577,c),
(323,603,o),
(323,630,o),
(323,656,c),
(323,679,o),
(323,775,o),
(323,800,c),
(273,800,l),
(273,772,o),
(273,677,o),
(273,655,c),
(273,629,o),
(273,604,o),
(273,578,c),
(273,504,o),
(273,430,o),
(273,356,c),
(273,307,o),
(273,257,o),
(273,208,c),
(273,139,o),
(273,69,o),
(273,0,c)
);
}
);
width = 600;
},
{
layerId = "5D4D7253-3A04-4EB3-AE94-F4945074D8A1";
shapes = (
{
closed = 1;
nodes = (
(120,127,l),
(190,32,o),
(218,1,o),
(286,1,cs),
(408,1,o),
(447,131,o),
(447,234,cs),
(447,382,o),
(291,302,o),
(291,390,cs),
(291,468,o),
(453,550,o),
(394,665,cs),
(367,718,o),
(278,714,o),
(139,623,c),
(165,577,l),
(253,628,o),
(325,665,o),
(348,623,cs),
(376,571,o),
(236,489,o),
(236,390,cs),
(236,252,o),
(394,321,o),
(394,232,cs),
(394,164,o),
(367,55,o),
(289,55,cs),
(247,55,o),
(224,90,o),
(168,160,c)
);
}
);
width = 527;
}
);
unicode = 51;
},
{
glyphname = four;
lastChange = "2023-03-03 22:02:12 +0000";
layers = (
{
layerId = m01;
shapes = (
{
closed = 1;
nodes = (
(323,0,l),
(323,71,o),
(323,141,o),
(323,212,c),
(323,261,o),
(323,310,o),
(323,359,c),
(323,432,o),
(323,504,o),
(323,577,c),
(323,603,o),
(323,630,o),
(323,656,c),
(323,668,o),
(323,698,o),
(323,728,cs),
(323,758,o),
(323,788,o),
(323,800,c),
(273,800,l),
(273,785,o),
(273,753,o),
(273,723,cs),
(273,694,o),
(273,666,o),
(273,655,c),
(273,629,o),
(273,604,o),
(273,578,c),
(273,504,o),
(273,430,o),
(273,356,c),
(273,307,o),
(273,257,o),
(273,208,c),
(273,139,o),
(273,69,o),
(273,0,c)
);
}
);
width = 600;
},
{
layerId = "5D4D7253-3A04-4EB3-AE94-F4945074D8A1";
shapes = (
{
closed = 1;
nodes = (
(458,1,l),
(443,85,o),
(416,79,o),
(416,117,cs),
(416,155,o),
(506,174,o),
(463,276,cs),
(416,389,o),
(184,249,o),
(172,320,cs),
(158,400,o),
(274,393,o),
(326,475,cs),
(357,523,o),
(357,641,o),
(411,641,cs),
(448,641,o),
(393,518,o),
(413,386,c),
(468,391,l),
(448,522,o),
(523,699,o),
(420,699,cs),
(316,699,o),
(314,559,o),
(276,504,cs),
(225,430,o),
(103,425,o),
(114,313,cs),
(128,172,o),
(382,321,o),
(417,245,cs),
(440,195,o),
(369,199,o),
(363,112,cs),
(361,78,o),
(388,72,o),
(404,1,c)
);
}
);
width = 600;
}
);
unicode = 52;
},
{
glyphname = five;
lastChange = "2023-03-03 21:38:40 +0000";
layers = (
{
layerId = m01;
shapes = (
{
closed = 1;
nodes = (
(273,798,l),
(273,772,o),
(273,677,o),
(273,655,c),
(273,629,o),
(273,604,o),
(273,578,c),
(273,504,o),
(273,430,o),
(273,356,c),
(273,307,o),
(273,257,o),
(273,208,c),
(273,139,o),
(273,69,o),
(273,0,c),
(323,0,l),
(323,71,o),
(323,141,o),
(323,212,c),
(323,261,o),
(323,310,o),
(323,359,c),
(323,432,o),
(323,504,o),
(323,577,c),
(323,603,o),
(323,630,o),
(323,656,c),
(323,679,o),
(323,775,o),
(323,800,c),
(273,800,l)
);
}
);
width = 600;
},
{
layerId = "5D4D7253-3A04-4EB3-AE94-F4945074D8A1";
shapes = (
{
closed = 1;
nodes = (
(479,692,l),
(290,700,o),
(271,707,o),
(220,621,cs),
(178,550,o),
(97,599,o),
(111,469,cs),
(127,323,o),
(352,397,o),
(409,307,cs),
(454,237,o),
(472,158,o),
(412,86,cs),
(351,13,o),
(240,128,o),
(163,199,c),
(123,158,l),
(266,22,o),
(377,-62,o),
(472,69,cs),
(516,130,o),
(517,237,o),
(456,339,cs),
(391,448,o),
(176,383,o),
(169,481,cs),
(164,551,o),
(217,513,o),
(262,582,cs),
(312,658,o),
(308,643,o),
(480,636,c),
(481,693,l)
);
}
);
width = 600;
}
);
unicode = 53;
},
{
glyphname = six;
lastChange = "2023-03-03 22:02:36 +0000";
layers = (
{
layerId = m01;
shapes = (
{
closed = 1;
nodes = (
(323,0,l),
(323,27,o),
(323,55,o),
(323,83,cs),
(323,115,o),
(323,146,o),
(323,178,c),
(323,204,o),
(323,229,o),
(323,255,cs),
(323,292,o),
(323,329,o),
(323,366,cs),
(323,403,o),
(323,439,o),
(323,476,cs),
(323,534,o),
(323,592,o),
(323,650,cs),
(323,679,o),
(323,708,o),
(323,736,cs),
(323,758,o),
(323,779,o),
(323,800,c),
(273,800,l),
(273,776,o),
(273,755,o),
(273,733,cs),
(273,706,o),
(273,678,o),
(273,650,cs),
(273,591,o),
(273,532,o),
(273,473,cs),
(273,436,o),
(273,399,o),
(273,362,cs),
(273,326,o),
(273,289,o),
(273,252,cs),
(273,226,o),
(273,201,o),
(273,175,c),
(273,146,o),
(273,116,o),
(273,86,cs),
(273,58,o),
(273,29,o),
(273,0,c)
);
}
);
width = 600;
},
{
layerId = "5D4D7253-3A04-4EB3-AE94-F4945074D8A1";
shapes = (
{
closed = 1;
nodes = (
(298,384,l),
(314,404,o),
(329,431,o),
(355,429,cs),
(398,425,o),
(410,388,o),
(408,334,cs),
(405,254,o),
(446,222,o),
(446,179,cs),
(446,100,o),
(366,48,o),
(283,57,cs),
(240,62,o),
(208,124,o),
(211,180,cs),
(215,258,o),
(242,297,o),
(214,414,cs),
(177,570,o),
(240,642,o),
(287,643,cs),
(311,644,o),
(340,631,o),
(404,591,c),
(434,635,l),
(381,677,o),
(322,699,o),
(283,699,cs),
(190,699,o),
(116,569,o),
(163,409,cs),
(186,294,o),
(160,258,o),
(153,183,cs),
(143,86,o),
(203,8,o),
(284,3,cs),
(412,-5,o),
(511,90,o),
(503,182,cs),
(498,240,o),
(456,265,o),
(457,340,cs),
(458,435,o),
(438,474,o),
(360,481,cs),
(290,487,o),
(260,421,o),
(253,411,c)
);
}
);
width = 600;
}
);
unicode = 54;
},
{
glyphname = seven;
lastChange = "2023-03-03 21:08:26 +0000";
layers = (
{
layerId = m01;
shapes = (
{
closed = 1;
nodes = (
(273,798,l),
(273,748,o),
(273,558,o),
(273,542,c),
(273,522,o),
(273,501,o),
(273,481,c),
(273,393,o),
(273,305,o),
(273,217,cs),
(273,144,o),
(273,72,o),
(273,0,c),
(323,0,l),
(323,73,o),
(323,146,o),
(323,220,cs),
(323,306,o),
(323,392,o),
(323,478,c),
(323,499,o),
(323,521,o),
(323,542,c),
(323,557,o),
(323,752,o),
(323,800,c),
(273,800,l)
);
}
);
width = 600;
},
{
layerId = "5D4D7253-3A04-4EB3-AE94-F4945074D8A1";
shapes = (
{
closed = 1;
nodes = (
(110,601,l),
(160,615,o),
(356,689,o),
(382,642,cs),
(415,582,o),
(279,527,o),
(308,425,cs),
(325,364,o),
(335,330,o),
(316,274,cs),
(269,134,o),
(276,191,o),
(241,0,c),
(293,0,l),
(331,210,o),
(333,160,o),
(368,279,cs),
(383,330,o),
(381,345,o),
(357,432,cs),
(337,505,o),
(500,579,o),
(425,682,cs),
(378,746,o),
(193,689,o),
(97,657,c),
(110,603,l)
);
}
);
width = 600;
}
);
unicode = 55;
},
{
glyphname = eight;
lastChange = "2023-03-03 21:15:46 +0000";
layers = (
{
layerId = m01;
shapes = (
{
closed = 1;
nodes = (
(273,798,l),
(273,768,o),
(273,737,o),
(273,707,c),
(273,677,o),
(273,646,o),
(273,616,c),
(273,593,o),
(273,571,o),
(273,548,c),
(273,500,o),
(273,452,o),
(273,404,c),
(273,360,o),
(273,316,o),
(273,272,c),
(273,234,o),
(273,197,o),
(273,159,c),
(273,137,o),
(273,115,o),
(273,93,cs),
(273,62,o),
(273,31,o),
(273,0,c),
(323,0,l),
(323,32,o),
(323,63,o),
(323,94,cs),
(323,115,o),
(323,137,o),
(323,158,c),
(323,196,o),
(323,235,o),
(323,273,c),
(323,319,o),
(323,364,o),
(323,410,c),
(323,455,o),
(323,501,o),
(323,546,c),
(323,568,o),
(323,591,o),
(323,613,c),
(323,645,o),
(323,678,o),
(323,710,c),
(323,740,o),
(323,770,o),
(323,800,c),
(273,800,l)
);
}
);
width = 600;
},
{
layerId = "5D4D7253-3A04-4EB3-AE94-F4945074D8A1";
shapes = (
{
closed = 1;
nodes = (
(398,466,l),
(464,573,o),
(423,700,o),
(292,700,cs),
(225,700,o),
(150,646,o),
(150,554,cs),
(150,499,o),
(207,395,o),
(312,395,cs),
(409,395,o),
(445,319,o),
(450,243,cs),
(455,161,o),
(399,57,o),
(330,55,cs),
(295,54,o),
(281,86,o),
(248,130,cs),
(224,162,o),
(179,167,o),
(179,215,cs),
(179,279,o),
(193,282,o),
(274,331,c),
(245,376,l),
(155,327,o),
(122,291,o),
(122,212,cs),
(122,141,o),
(184,130,o),
(217,84,cs),
(254,32,o),
(268,0,o),
(323,0,cs),
(443,0,o),
(498,136,o),
(498,245,cs),
(498,391,o),
(408,447,o),
(321,447,cs),
(237,447,o),
(209,521,o),
(209,560,cs),
(209,619,o),
(260,644,o),
(305,644,cs),
(344,644,o),
(408,597,o),
(353,494,c),
(398,469,l)
);
}
);
width = 600;
}
);
unicode = 56;
},
{
glyphname = nine;
lastChange = "2023-03-03 22:02:48 +0000";
layers = (
{
layerId = m01;
shapes = (
{
closed = 1;
nodes = (
(323,0,l),
(323,27,o),
(323,55,o),
(323,83,cs),
(323,115,o),
(323,146,o),
(323,178,c),
(323,204,o),
(323,229,o),
(323,255,cs),
(323,292,o),
(323,329,o),
(323,366,cs),
(323,403,o),
(323,439,o),
(323,476,cs),
(323,534,o),
(323,592,o),
(323,650,cs),
(323,679,o),
(323,708,o),
(323,736,cs),
(323,758,o),
(323,779,o),
(323,800,c),
(273,800,l),
(273,776,o),
(273,755,o),
(273,733,cs),
(273,706,o),
(273,678,o),
(273,650,cs),
(273,591,o),
(273,532,o),
(273,473,cs),
(273,436,o),
(273,399,o),
(273,362,cs),
(273,326,o),
(273,289,o),
(273,252,cs),
(273,226,o),
(273,201,o),
(273,175,c),
(273,146,o),
(273,116,o),
(273,86,cs),
(273,58,o),
(273,29,o),
(273,0,c)
);
}
);
width = 600;
},
{
layerId = "5D4D7253-3A04-4EB3-AE94-F4945074D8A1";
shapes = (
{
closed = 1;
nodes = (
(182,68,l),
(235,24,o),
(294,1,o),
(333,1,cs),
(426,1,o),
(500,132,o),
(453,292,cs),
(430,407,o),
(456,443,o),
(463,518,cs),
(473,615,o),
(413,693,o),
(332,698,cs),
(204,706,o),
(105,611,o),
(113,519,cs),
(118,461,o),
(160,436,o),
(159,361,cs),
(158,266,o),
(178,227,o),
(256,220,cs),
(326,214,o),
(356,280,o),
(363,290,c),
(319,315,l),
(303,295,o),
(287,269,o),
(261,271,cs),
(218,275,o),
(206,313,o),
(208,367,cs),
(211,447,o),
(170,479,o),
(170,522,cs),
(170,601,o),
(250,653,o),
(333,644,cs),
(376,639,o),
(408,577,o),
(405,521,cs),
(401,443,o),
(374,404,o),
(402,287,cs),
(439,131,o),
(376,57,o),
(329,56,cs),
(305,55,o),
(276,70,o),
(212,110,c)
);
}
);
width = 600;
}
);
unicode = 57;
},
